<svg width="109" height="105" viewBox="0 0 109 105" fill="none" xmlns="http://www.w3.org/2000/svg">
<path d="M103.344 104.096C105.037 105.027 107.166 104.409 108.097 102.716C109.029 101.022 108.411 98.8936 106.717 97.9621L105.03 101.029L103.344 104.096ZM22.0303 75.5288L18.8939 77.0822L19.111 77.5205L19.4399 77.8824L22.0303 75.5288ZM4.03031 7.02884L7.37939 6.01215C7.36171 5.95392 7.34252 5.89616 7.32183 5.83893L4.03031 7.02884ZM34.5803 25.1315C33.2562 23.7231 31.0412 23.6548 29.6329 24.9789C28.2246 26.3029 28.1563 28.518 29.4803 29.9263L32.0303 27.5289L34.5803 25.1315ZM61.498 28.003C61.7599 26.0878 60.4196 24.323 58.5044 24.0611C56.5893 23.7993 54.8244 25.1395 54.5626 27.0547L58.0303 27.5289L61.498 28.003ZM31.7526 44.5399C29.8257 44.6933 28.388 46.3796 28.5413 48.3065C28.6947 50.2334 30.3811 51.6712 32.308 51.5178L32.0303 48.0289L31.7526 44.5399ZM73.2803 71.4038L70.7303 73.8012L70.7303 73.8012L73.2803 71.4038ZM41.0037 68.0578C39.1557 68.6248 38.1173 70.5825 38.6843 72.4304C39.2512 74.2784 41.2089 75.3169 43.0569 74.7499L42.0303 71.4038L41.0037 68.0578ZM81.0628 46.4845C82.419 45.1071 82.4018 42.8911 81.0244 41.5349C79.647 40.1787 77.431 40.1959 76.0748 41.5733L78.5688 44.0289L81.0628 46.4845ZM105.03 101.029L106.717 97.9621C102.079 95.4109 97.822 91.8793 94.6806 88.9191C93.1221 87.4505 91.8649 86.1482 91.0021 85.2184C90.5711 84.754 90.2399 84.3839 90.02 84.1343C89.91 84.0095 89.8281 83.9149 89.7755 83.8538C89.7492 83.8233 89.7303 83.8011 89.7189 83.7877C89.7132 83.781 89.7094 83.7765 89.7075 83.7743C89.7065 83.7732 89.706 83.7726 89.706 83.7726C89.706 83.7726 89.7062 83.7728 89.7064 83.7731C89.7065 83.7732 89.7068 83.7735 89.7069 83.7736C89.7072 83.774 89.7075 83.7743 87.0303 86.0288C84.3531 88.2833 84.3535 88.2838 84.3539 88.2843C84.3541 88.2845 84.3546 88.285 84.3549 88.2855C84.3557 88.2863 84.3565 88.2873 84.3575 88.2885C84.3595 88.2908 84.3619 88.2937 84.3648 88.2972C84.3707 88.3041 84.3785 88.3133 84.3883 88.3248C84.4077 88.3477 84.435 88.3795 84.4697 88.4199C84.5392 88.5006 84.6388 88.6155 84.7672 88.7612C85.0239 89.0526 85.3957 89.4677 85.871 89.9799C86.8207 91.0032 88.1885 92.4197 89.88 94.0136C93.2386 97.1784 97.9821 101.147 103.344 104.096L105.03 101.029ZM87.0303 86.0288L85.6565 82.8097C69.8854 89.5405 59.2224 91.8459 50.3867 90.3414C41.6697 88.8572 34.0354 83.5371 24.6208 73.1752L22.0303 75.5288L19.4399 77.8824C29.2191 88.6457 38.1797 95.3637 49.2117 97.2421C60.1251 99.1003 72.3651 96.0931 88.4042 89.2479L87.0303 86.0288ZM22.0303 75.5288L25.1667 73.9754C18.6387 60.795 16.3445 51.02 14.6251 41.0059C12.899 30.9534 11.7123 20.2854 7.37939 6.01215L4.03031 7.02884L0.681223 8.04552C4.84827 21.7723 5.93855 31.7801 7.72601 42.1904C9.52007 52.6392 11.9758 63.1141 18.8939 77.0822L22.0303 75.5288ZM4.03031 7.02884L7.32183 5.83893C7.63235 6.6979 7.51409 7.59335 7.14849 8.27414C6.85279 8.82476 6.48685 9.07502 6.43432 9.11098C6.33312 9.18026 6.49267 9.05876 7.18754 8.86207C8.47597 8.49736 10.6168 8.14124 13.5095 7.88514C19.2334 7.37836 27.3028 7.31292 36.0224 8.04661C44.7463 8.78067 53.984 10.3034 62.0914 12.911C70.2694 15.5412 76.9058 19.1512 80.8663 23.7989L83.5303 21.5288L86.1943 19.2588C81.006 13.1701 72.9295 9.04359 64.2346 6.24713C55.4692 3.42799 45.674 1.83399 36.6093 1.07126C27.5401 0.308157 19.0648 0.365911 12.8922 0.91241C9.83663 1.18294 7.19125 1.58598 5.28099 2.1267C4.37652 2.38273 3.33361 2.75051 2.48003 3.33487C2.05131 3.62836 1.42169 4.14261 0.981492 4.96232C0.471384 5.9122 0.327781 7.08183 0.738784 8.21875L4.03031 7.02884ZM83.5303 21.5288L80.8663 23.7989C89.706 34.1724 94.4375 44.308 95.1118 54.1168C95.7811 63.8539 92.4864 73.7613 84.3137 83.822L87.0303 86.0288L89.7469 88.2356C98.8052 77.0848 102.909 65.4786 102.095 53.6368C101.286 41.8666 95.6523 30.358 86.1943 19.2588L83.5303 21.5288ZM59.5303 56.7788L62.9639 56.1003C60.5432 43.8508 60.1597 37.7911 61.498 28.003L58.0303 27.5289L54.5626 27.0547C53.0903 37.8224 53.5741 44.6924 56.0967 57.4574L59.5303 56.7788ZM59.5303 56.7788L62.0803 54.3814L56.5803 48.5314L54.0303 50.9288L51.4803 53.3263L56.9803 59.1763L59.5303 56.7788ZM54.0303 50.9288L56.5803 48.5314L34.5803 25.1315L32.0303 27.5289L29.4803 29.9263L51.4803 53.3263L54.0303 50.9288ZM54.0303 50.9288L54.8766 47.5327C45.3332 45.1546 39.6724 43.9096 31.7526 44.5399L32.0303 48.0289L32.308 51.5178C38.9886 50.9862 43.6729 51.9549 53.184 54.325L54.0303 50.9288ZM73.2803 71.4038L75.8303 69.0064L62.0803 54.3814L59.5303 56.7788L56.9803 59.1763L70.7303 73.8012L73.2803 71.4038ZM73.2803 71.4038L70.7303 73.8012C70.9554 74.0407 70.8267 73.9684 70.6869 73.6302C70.5123 73.2076 70.2221 72.0165 71.06 70.8447C71.3997 70.3696 71.7918 70.1089 72.0369 69.9791C72.2781 69.8514 72.4588 69.8063 72.5085 69.7947C72.5914 69.7754 72.515 69.8023 72.1754 69.8023C70.7049 69.8023 68.0276 69.3797 64.3113 68.7908C60.7794 68.231 56.5799 67.5739 52.5519 67.2803C48.6032 66.9925 44.4028 67.0149 41.0037 68.0578L42.0303 71.4038L43.0569 74.7499C45.1578 74.1053 48.2747 73.9871 52.043 74.2618C55.7319 74.5307 59.649 75.1392 63.2156 75.7045C66.5979 76.2405 70.0012 76.8023 72.1755 76.8023C72.7471 76.8023 73.4297 76.7676 74.0972 76.6121C74.6526 76.4827 75.8959 76.1164 76.7541 74.9162C77.8057 73.4455 77.5326 71.8676 77.1565 70.9572C76.8152 70.1313 76.2662 69.4701 75.8303 69.0064L73.2803 71.4038ZM87.0303 86.0288L89.5803 83.6314L81.1188 74.6315L78.5688 77.0289L76.0188 79.4263L84.4803 88.4262L87.0303 86.0288ZM78.5688 77.0289L81.1188 74.6315L75.8303 69.0064L73.2803 71.4038L70.7303 73.8012L76.0188 79.4263L78.5688 77.0289ZM78.5688 77.0289L82.0575 76.7473C81.6506 71.7058 81.1635 64.0292 81.0219 57.3917C80.9508 54.0624 80.9686 51.0705 81.1152 48.8274C81.1891 47.6964 81.2901 46.8516 81.4024 46.2873C81.4588 46.004 81.5024 45.873 81.5116 45.8486C81.5421 45.7674 81.4422 46.0991 81.0628 46.4845L78.5688 44.0289L76.0748 41.5733C75.4492 42.2086 75.1276 42.9375 74.959 43.3862C74.769 43.8917 74.6362 44.4232 74.5371 44.9208C74.3385 45.9184 74.2126 47.1087 74.1301 48.3709C73.9639 50.9143 73.9509 54.1412 74.0235 57.541C74.169 64.3619 74.6665 72.1853 75.0802 77.3104L78.5688 77.0289Z" fill="white"/>
</svg>
